# xmcd CD database file
#
# Track frame offsets:
#	150
#	17602
#	33307
#	46605
#	61185
#	74242
#	89162
#	107020
#	119447
#	137962
#	153910
#	167150
#	183037
#	195870
#
# Disc length: 2766 seconds
#
# Revision: 0
# Processed by: cddbd v1.4PL0 Copyright (c) Steve Scherf et al.
# Submitted via: Feurio! 1.65 - http://www.feurio.com
#
DISCID=b80acc0e
DTITLE=Bluebirds - Swamp Stomp
DYEAR=1995
DGENRE=
TTITLE0=Swamp Stomp
TTITLE1=Blues In A Honky Tonk Key
TTITLE2=I Can't Be Replaced
TTITLE3=Casha
TTITLE4=Briarpatch
TTITLE5=3rd House On The Left
TTITLE6=First You Cry
TTITLE7=I'm Your Man
TTITLE8=Testin' Water
TTITLE9=No More Cane On The Brazos
TTITLE10=Ten More Miles
TTITLE11=Leavin' Mississippi
TTITLE12=Bon Ton Roulet
TTITLE13=Justine
EXTD=
EXTT0=
EXTT1=
EXTT2=
EXTT3=
EXTT4=
EXTT5=
EXTT6=
EXTT7=
EXTT8=
EXTT9=
EXTT10=
EXTT11=
EXTT12=
EXTT13=
PLAYORDER=
